<?xml version="1.0" encoding="UTF-8"?>
<svg width="32" height="32" version="1.1" viewBox="0 0 8.47 8.47" xmlns="http://www.w3.org/2000/svg"><defs><linearGradient id="linearGradient6212" x1="1.53e-6" x2="16.9" y1="7.39" y2="7.39" gradientTransform="matrix(.5 0 0 .5 -.0166 -.0166)" gradientUnits="userSpaceOnUse"><stop offset=".902"/><stop stop-color="#7f7f7f" offset=".918"/><stop stop-color="#fff" offset="1"/></linearGradient></defs><g fill="none"><path d="m-0.0164 6.76c0.00943-2.75e-5 0.0189-5.44e-5 0.0283-9.6e-5 0.00943-2.7e-5 0.0189-6.84e-5 0.0283-1.09e-4 0.00943-2.7e-5 0.0189-6.84e-5 0.0283-1.1e-4 0.00943-5.44e-5 0.0189-9.58e-5 0.0283-1.37e-4 0.00943-5.51e-5 0.0189-1.1e-4 0.0283-1.5e-4 0.00943-5.51e-5 0.0189-1.23e-4 0.0283-1.78e-4 0.00943-5.51e-5 0.0189-1.23e-4 0.0283-1.92e-4 0.00943-5.51e-5 0.0189-1.37e-4 0.0283-2.05e-4 0.00943-6.86e-5 0.0189-1.5e-4 0.0283-2.33e-4 0.00943-8.19e-5 0.0189-1.64e-4 0.0283-2.6e-4l0.0283-2.88e-4c0.00943-1.1e-4 0.0189-2.05e-4 0.0283-3.28e-4 0.00943-1.1e-4 0.0189-2.33e-4 0.0283-3.56e-4 0.00943-1.23e-4 0.0189-2.47e-4 0.0283-3.84e-4 0.00943-1.5e-4 0.0189-2.87e-4 0.0283-4.38e-4 0.00943-1.51e-4 0.0189-3.14e-4 0.0283-4.93e-4 0.00943-1.64e-4 0.0189-3.42e-4 0.0283-5.49e-4 0.00943-1.78e-4 0.0189-3.7e-4 0.0283-6e-4 0.00943-2.05e-4 0.0189-4.11e-4 0.0283-6.49e-4 0.00943-2.33e-4 0.0189-4.65e-4 0.0283-6.99e-4 0.00943-2.6e-4 0.0189-4.99e-4 0.0283-7.99e-4 0.00943-2.74e-4 0.0189-5.5e-4 0.0283-8.49e-4 0.00943-3.15e-4 0.0189-6.49e-4 0.0283-9.51e-4 0.00943-3.42e-4 0.0189-6.99e-4 0.0283-0.00104 0.00943-3.7e-4 0.0189-7.49e-4 0.0283-0.00115 0.00943-3.97e-4 0.0189-7.99e-4 0.0283-0.00125 0.00943-4.38e-4 0.0189-8.98e-4 0.0283-0.00136 0.00943-4.79e-4 0.0189-9.98e-4 0.0283-0.00151 0.00943-5e-4 0.0189-0.0011 0.0283-0.00166l0.0283-0.00181c0.00943-6.49e-4 0.0189-0.0013 0.0283-0.0019 0.00943-6.99e-4 0.0189-0.00136 0.0283-0.00219 0.00943-7.49e-4 0.0189-0.00151 0.0283-0.00231 0.00943-7.99e-4 0.0189-0.00166 0.0283-0.00261 0.00943-8.98e-4 0.0189-0.0018 0.0283-0.00274 0.00943-9.51e-4 0.0189-0.00204 0.0283-3e-3 0.00943-0.00104 0.0189-0.0022 0.0283-0.00329 0.00943-0.00115 0.0189-0.00231 0.0283-0.00354 0.00943-0.00125 0.0189-0.00244 0.0283-0.00384 0.00943-0.00136 0.0189-0.00274 0.0283-0.00424l0.0283-0.0045c0.00943-0.00151 0.0189-0.00313 0.0283-0.00494 0.00943-0.00166 0.0189-0.0034 0.0283-0.00535 0.00943-0.0018 0.0189-0.0037 0.0283-0.00574 0.00943-0.0019 0.0189-4e-3 0.0283-0.00616 0.00943-0.0022 0.0189-0.0044 0.0283-0.0067 0.00943-0.00231 0.0189-0.00464 0.0283-0.00712 0.00943-0.00244 0.0189-0.00505 0.0283-0.00766 0.00943-0.00261 0.0189-0.00535 0.0283-0.00823 0.00943-0.0029 0.0189-0.00574 0.0283-0.0089 0.00943-3e-3 0.0189-0.00631 0.0283-0.00944 0.00943-0.00329 0.0189-0.0067 0.0283-0.0101 0.00943-0.00354 0.0189-0.00712 0.0283-0.0109 0.00943-0.0037 0.0189-0.00766 0.0283-0.0116 0.00943-4e-3 0.0189-0.00823 0.0283-0.0125 0.00943-0.00424 0.0189-0.00875 0.0283-0.0133 0.00943-0.00464 0.0189-0.00932 0.0283-0.0142 0.00942-0.00494 0.0189-0.01 0.0283-0.0152 0.00943-0.0052 0.0189-0.0105 0.0283-0.0161 0.00943-0.00546 0.0189-0.0112 0.0283-0.0171 0.00943-0.00588 0.0189-0.0119 0.0283-0.0182 0.00943-0.00631 0.0189-0.0127 0.0283-0.0194 0.00942-0.0067 0.0189-0.0135 0.0283-0.0205 0.00943-0.00712 0.0189-0.0143 0.0283-0.0218 0.00942-0.00741 0.0189-0.0151 0.0283-0.023 0.00943-0.00793 0.0189-0.016 0.0283-0.0244 0.00942-0.00837 0.0189-0.0169 0.0283-0.0258 0.00943-0.0089 0.0189-0.0179 0.0283-0.0272 0.00943-0.00932 0.0189-0.0189 0.0283-0.0287 0.00942-0.00986 0.0189-0.0199 0.0283-0.0302 0.00943-0.0104 0.0189-0.0209 0.0283-0.0318 0.00942-0.0108 0.0189-0.022 0.0283-0.0335 0.00943-0.0115 0.0189-0.0232 0.0283-0.0352 0.00942-0.012 0.0189-0.0243 0.0283-0.0369 0.00944-0.0126 0.0189-0.0255 0.0283-0.0387 0.00942-0.0131 0.0189-0.0267 0.0283-0.0406 0.00944-0.0138 0.0189-0.028 0.0283-0.0424 0.00944-0.0145 0.0189-0.0293 0.0283-0.0444 0.00942-0.0151 0.0189-0.0306 0.0283-0.0464 0.00944-0.0158 0.0189-0.0319 0.0283-0.0484 0.00942-0.0165 0.0189-0.0333 0.0283-0.0504 0.00944-0.0171 0.0189-0.0347 0.0283-0.0525 0.00942-0.0179 0.0189-0.0361 0.0283-0.0546 0.00944-0.0186 0.0189-0.0375 0.0283-0.0568 0.00942-0.0193 0.0189-0.0389 0.0283-0.0589 0.00944-0.02 0.0189-0.0404 0.0283-0.0611 0.00944-0.0207 0.0189-0.0418 0.0283-0.0633 0.00942-0.0215 0.0189-0.0433 0.0283-0.0656 0.00944-0.0222 0.0189-0.0448 0.0283-0.0678 0.00942-0.023 0.0189-0.0463 0.0283-0.07 0.00944-0.0237 0.0189-0.0478 0.0283-0.0722 0.00942-0.0244 0.0189-0.0492 0.0283-0.0744 0.00944-0.0252 0.0189-0.0507 0.0283-0.0766 0.00942-0.0259 0.0189-0.0521 0.0283-0.0787 0.00944-0.0266 0.0189-0.0536 0.0283-0.0809 0.00944-0.0273 0.0189-0.055 0.0283-0.083 0.00942-0.028 0.0189-0.0563 0.0283-0.085 0.00944-0.0287 0.0189-0.0577 0.0283-0.087 0.00942-0.0293 0.0189-0.059 0.0283-0.089 0.00944-0.03 0.0189-0.0602 0.0283-0.0908 0.00942-0.0306 0.0189-0.0615 0.0283-0.0926 0.00944-0.0312 0.0189-0.0626 0.0283-0.0943 0.00942-0.0317 0.0189-0.0637 0.0283-0.096 0.00944-0.0323 0.0189-0.0648 0.0283-0.0975 0.00944-0.0328 0.0189-0.0658 0.0283-0.099 0.00942-0.0332 0.0189-0.0667 0.0283-0.1 0.00944-0.0337 0.0189-0.0675 0.0283-0.102 0.00942-0.034 0.0189-0.0682 0.0283-0.103 0.00944-0.0344 0.0189-0.0689 0.0283-0.104 0.00944-0.0347 0.0189-0.0695 0.0283-0.104 0.00944-0.0349 0.0189-0.0699 0.0283-0.105 0.00942-0.0351 0.0189-0.0703 0.0283-0.106 0.00944-0.0353 0.0189-0.0706 0.0283-0.106 0.00942-0.0354 0.0189-0.0708 0.0283-0.106 0.00944-0.0354 0.0189-0.0708 0.0283-0.106 0.00944-0.0354 0.0189-0.0708 0.0283-0.106 0.00942-0.0353 0.0189-0.0706 0.0283-0.106 0.00944-0.0352 0.0189-0.0703 0.0283-0.105 0.00942-0.035 0.0189-0.0699 0.0283-0.105 0.00944-0.0347 0.0189-0.0694 0.0283-0.104 0.00942-0.0344 0.0189-0.0687 0.0283-0.103 0.00944-0.034 0.0189-0.0679 0.0283-0.102 0.00942-0.0336 0.0189-0.067 0.0283-0.1 0.00942-0.0331 0.0189-0.0659 0.0283-0.0984 0.00944-0.0325 0.0189-0.0647 0.0283-0.0966 0.00942-0.0319 0.0189-0.0634 0.0283-0.0946 0.00944-0.0312 0.0189-0.062 0.0283-0.0924 0.00942-0.0304 0.0189-0.0604 0.0283-0.09 0.00944-0.0296 0.0189-0.0587 0.0283-0.0874 0.00942-0.0287 0.0189-0.0569 0.0283-0.0846 0.00944-0.0277 0.0189-0.055 0.0283-0.0817 0.00942-0.0267 0.0189-0.0529 0.0283-0.0785 0.00942-0.0256 0.0189-0.0507 0.0283-0.0752 0.00944-0.0245 0.0189-0.0484 0.0283-0.0717 0.00942-0.0233 0.0189-0.046 0.0283-0.0681 0.00944-0.0221 0.0189-0.0435 0.0283-0.0643 0.00942-0.0208 0.0189-0.0409 0.0283-0.0604 0.00944-0.0195 0.0189-0.0382 0.0283-0.0563 0.00942-0.0181 0.0189-0.0354 0.0283-0.0521 0.00944-0.0166 0.0189-0.0326 0.0283-0.0477 0.00942-0.0152 0.0189-0.0296 0.0283-0.0433 0.00942-0.0137 0.0189-0.0266 0.0283-0.0388 0.00944-0.0122 0.0189-0.0235 0.0283-0.0341 0.00942-0.0106 0.0189-0.0204 0.0283-0.0294 0.00944-0.00901 0.0189-0.0172 0.0283-0.0246 0.00942-0.00741 0.0189-0.014 0.0283-0.0198 0.00944-0.00577 0.0189-0.0107 0.0283-0.0149 0.00942-0.00414 0.0189-0.00745 0.0283-0.00992 0.00944-0.00248 0.0189-0.00414 0.0283-0.00498 0.00942-8.29e-4 0.0189-8.29e-4 0.0283 0 0.00944 8.24e-4 0.0189 0.00249 0.0283 0.00498 0.00944 0.00248 0.0189 0.00578 0.0283 0.00992 0.00942 0.00414 0.0189 0.00909 0.0283 0.0149 0.00944 0.00577 0.0189 0.0124 0.0283 0.0198 0.00942 0.00739 0.0189 0.0156 0.0283 0.0246 0.00944 0.00901 0.0189 0.0188 0.0283 0.0294 0.00942 0.0106 0.0189 0.022 0.0283 0.0341 0.00944 0.0122 0.0189 0.0251 0.0283 0.0388 0.00942 0.0137 0.0189 0.0281 0.0283 0.0433 0.00944 0.0152 0.0189 0.0311 0.0283 0.0477 0.00944 0.0166 0.0189 0.034 0.0283 0.0521 0.00942 0.0181 0.0189 0.0368 0.0283 0.0563 0.00944 0.0194 0.0189 0.0396 0.0283 0.0604 0.00942 0.0208 0.0189 0.0422 0.0283 0.0643 0.00944 0.0221 0.0189 0.0448 0.0283 0.0681 0.00942 0.0233 0.0189 0.0472 0.0283 0.0717 0.00944 0.0245 0.0189 0.0496 0.0283 0.0752 0.00942 0.0256 0.0189 0.0518 0.0283 0.0785 0.00944 0.0267 0.0189 0.0539 0.0283 0.0817 0.00944 0.0277 0.0189 0.0559 0.0283 0.0846 0.00942 0.0287 0.0189 0.0578 0.0283 0.0874 0.00944 0.0296 0.0189 0.0596 0.0283 0.09 0.00942 0.0304 0.0189 0.0612 0.0283 0.0924 0.00944 0.0312 0.0189 0.0627 0.0283 0.0946 0.00942 0.0319 0.0189 0.0641 0.0283 0.0966 0.00944 0.0325 0.0189 0.0653 0.0283 0.0984 0.00942 0.0331 0.0189 0.0665 0.0283 0.1 0.00944 0.0336 0.0189 0.0675 0.0283 0.102 0.00944 0.034 0.0189 0.0683 0.0283 0.103 0.00942 0.0344 0.0189 0.069 0.0283 0.104 0.00944 0.0347 0.0189 0.0696 0.0283 0.105 0.00942 0.035 0.0189 0.0701 0.0283 0.105 0.00944 0.0352 0.0189 0.0705 0.0283 0.106 0.00942 0.0353 0.0189 0.0707 0.0283 0.106 0.00944 0.0354 0.0189 0.0708 0.0283 0.106 0.00942 0.0354 0.0189 0.0708 0.0283 0.106 0.00944 0.0354 0.0189 0.0707 0.0283 0.106 0.00944 0.0353 0.0189 0.0705 0.0283 0.106 0.00944 0.0351 0.0189 0.0702 0.0283 0.105 0.00944 0.0349 0.0189 0.0697 0.0283 0.104 0.00942 0.0347 0.0189 0.0692 0.0283 0.104 0.00944 0.0344 0.0189 0.0686 0.0283 0.103 0.00942 0.034 0.0189 0.0679 0.0283 0.102 0.00944 0.0336 0.0189 0.0671 0.0283 0.1 0.00942 0.0332 0.0189 0.0662 0.0283 0.099 0.00944 0.0327 0.0189 0.0653 0.0283 0.0975 0.00944 0.0323 0.0189 0.0643 0.0283 0.096 0.00942 0.0317 0.0189 0.0632 0.0283 0.0943 0.00944 0.0312 0.0189 0.062 0.0283 0.0926 0.00942 0.0306 0.0189 0.0608 0.0283 0.0908 0.00944 0.03 0.0189 0.0596 0.0283 0.089 0.00942 0.0293 0.0189 0.0583 0.0283 0.087 0.00944 0.0287 0.0189 0.057 0.0283 0.085 0.00942 0.028 0.0189 0.0557 0.0283 0.083 0.00944 0.0273 0.0189 0.0543 0.0283 0.0809 0.00944 0.0266 0.0189 0.0529 0.0283 0.0787 0.00942 0.0259 0.0189 0.0514 0.0283 0.0766 0.00944 0.0252 0.0189 0.05 0.0283 0.0744 0.00942 0.0244 0.0189 0.0485 0.0283 0.0722 0.00944 0.0237 0.0189 0.047 0.0283 0.07 0.00944 0.023 0.0189 0.0455 0.0283 0.0678 0.00944 0.0222 0.0189 0.0441 0.0283 0.0656 0.00944 0.0215 0.0189 0.0426 0.0283 0.0633 0.00944 0.0207 0.0189 0.0411 0.0283 0.0611 0.00944 0.02 0.0189 0.0397 0.0283 0.0589 0.00944 0.0193 0.0189 0.0382 0.0283 0.0568 0.00944 0.0186 0.0189 0.0368 0.0283 0.0546 0.00944 0.0179 0.0189 0.0354 0.0283 0.0525 0.00944 0.0172 0.0189 0.034 0.0283 0.0504 0.00944 0.0165 0.0189 0.0326 0.0283 0.0484 0.00944 0.0158 0.0189 0.0312 0.0283 0.0464 0.00944 0.0151 0.0189 0.0299 0.0283 0.0444 0.00944 0.0145 0.0189 0.0286 0.0283 0.0424 0.00944 0.0138 0.0189 0.0274 0.0283 0.0406 0.00944 0.0133 0.0189 0.0261 0.0283 0.0387 0.00944 0.0126 0.0189 0.0249 0.0283 0.0369 0.00944 0.012 0.0189 0.0237 0.0283 0.0352 0.00944 0.0115 0.0189 0.0226 0.0283 0.0335 0.00944 0.0108 0.0189 0.0215 0.0283 0.0318 0.00944 0.0104 0.0189 0.0204 0.0283 0.0302 0.00944 0.00986 0.0189 0.0194 0.0283 0.0287 0.00944 0.00932 0.0189 0.0184 0.0283 0.0272 0.00944 0.00875 0.0189 0.0174 0.0283 0.0258 0.00944 0.00836 0.0189 0.0165 0.0283 0.0244 0.00944 0.00793 0.0189 0.0156 0.0283 0.023 0.00944 0.00752 0.0189 0.0147 0.0283 0.0218 0.00944 0.00712 0.0189 0.0139 0.0283 0.0205 0.00944 0.00656 0.0189 0.0131 0.0283 0.0194 0.00944 0.00631 0.0189 0.0123 0.0283 0.0182 0.00944 0.00588 0.0189 0.0116 0.0283 0.0171 0.00944 0.00546 0.0189 0.0109 0.0283 0.0161 0.00944 0.0052 0.0189 0.0103 0.0283 0.0152 0.00944 0.00494 0.0189 0.00958 0.0283 0.0142 0.00944 0.0045 0.0189 0.00904 0.0283 0.0133 0.00944 0.00424 0.0189 0.00848 0.0283 0.0125 0.00944 4e-3 0.0189 0.00793 0.0283 0.0116 0.00944 0.0037 0.0189 0.00741 0.0283 0.0109 0.00944 0.00354 0.0189 0.00697 0.0283 0.0101 0.00944 0.00329 0.0189 0.00642 0.0283 0.00944 0.00944 3e-3 0.0189 0.00601 0.0283 0.0089 0.00944 0.0029 0.0189 0.00562 0.0283 0.00823 0.00944 0.00261 0.0189 0.0052 0.0283 0.00766 0.00944 0.00244 0.0189 0.0048 0.0283 0.00712 0.00944 0.00231 0.0189 0.0045 0.0283 0.0067 0.00944 0.00219 0.0189 0.00424 0.0283 0.00616 0.00944 0.00204 0.0189 0.00384 0.0283 0.00574 0.00944 0.00181 0.0189 0.00354 0.0283 0.00535 0.00944 0.00166 0.0189 0.00329 0.0283 0.00494 0.00944 0.00151 0.0189 0.00313 0.0283 0.0045 0.00944 0.00151 0.0189 0.0029 0.0283 0.00424 0.00944 0.00136 0.0189 0.0026 0.0283 0.00384 0.00944 0.00125 0.0189 0.00244 0.0283 0.00354 0.00944 0.00115 0.0189 0.0022 0.0283 0.00329 0.00944 0.00104 0.0189 0.00203 0.0283 3e-3 0.00944 9.51e-4 0.0189 0.0019 0.0283 0.00274 0.00944 8.98e-4 0.0189 0.0018 0.0283 0.00261 0.00944 7.99e-4 0.0189 0.00166 0.0283 0.00231 0.00944 7.49e-4 0.0189 0.00151 0.0283 0.00219 0.00944 6.99e-4 0.0189 0.00136 0.0283 0.0019 0.00944 6.49e-4 0.0189 0.00125 0.0283 0.00181 0.00944 6e-4 0.0189 0.00115 0.0283 0.00166 0.00944 5.5e-4 0.0189 0.00104 0.0283 0.00151 0.00944 4.79e-4 0.0189 9.51e-4 0.0283 0.00136 0.00944 4.38e-4 0.0189 8.49e-4 0.0283 0.00125 0.0094 3.97e-4 0.0189 7.99e-4 0.0283 0.00115 0.00942 3.7e-4 0.0188 7e-4 0.0283 0.00104 0.00942 3.28e-4 0.0189 6.49e-4 0.0283 9.51e-4 0.00942 3.01e-4 0.0188 5.99e-4 0.0283 8.49e-4 0.00942 2.74e-4 0.0188 5.5e-4 0.0283 7.99e-4 0.00942 2.46e-4 0.0188 4.79e-4 0.0283 6.99e-4 0.00942 2.33e-4 0.0188 4.38e-4 0.0283 6.49e-4 0.00942 2.19e-4 0.0188 4.11e-4 0.0283 5.99e-4 0.00942 1.92e-4 0.0188 3.7e-4 0.0283 5.49e-4 0.0095 1.78e-4 0.0189 3.42e-4 0.0283 4.93e-4 0.00942 1.5e-4 0.0188 2.87e-4 0.0283 4.38e-4 0.00942 1.37e-4 0.0189 2.6e-4 0.0283 3.84e-4 0.00942 1.23e-4 0.0188 2.46e-4 0.0283 3.56e-4 0.00942 1.23e-4 0.0189 2.19e-4 0.0283 3.28e-4l0.0283 2.88e-4c0.00942 9.54e-5 0.0188 1.78e-4 0.0283 2.6e-4 0.00942 8.24e-5 0.0188 1.64e-4 0.0283 2.33e-4 0.00942 6.84e-5 0.0188 1.5e-4 0.0283 2.05e-4 0.00942 6.84e-5 0.0188 1.36e-4 0.0283 1.91e-4 0.00942 5.49e-5 0.0188 1.23e-4 0.0283 1.78e-4 0.0095 4.1e-5 0.0189 9.57e-5 0.0283 1.51e-4 0.00942 4.09e-5 0.0188 8.24e-5 0.0283 1.37e-4 0.00942 4.1e-5 0.0189 8.2e-5 0.0283 1.09e-4 0.00942 4.1e-5 0.0188 8.24e-5 0.0283 1.09e-4 0.00942 4.16e-5 0.0189 6.84e-5 0.0283 9.6e-5" stroke="url(#linearGradient6212)" stroke-width=".131" title="t exp(-pow(t,2))"/><text x="3.1215448" y="4.6263924" font-family="'Liberation Serif'" font-size="2.82px" stroke="#000000" stroke-width=".0661" xml:space="preserve"><tspan x="3.1215448" y="4.6263924" fill="#000000" font-family="sans-serif" font-size="2.82px" stroke="none" stroke-width=".0661">🗸</tspan></text><path d="m0.0165 0.0165v8.47m0.794-8.47v8.47m0.794-8.47v8.47m0.794-8.47v8.47m0.794-8.47v8.47m0.794-8.47v8.47m0.794-8.47v8.47m0.794-8.47v8.47m0.794-8.47v8.47m0.794-8.47v8.47m0.794-8.47v8.47m-7.94-8.47h8.47m-8.47 0.794h8.47m-8.47 0.794h8.47m-8.47 0.794h8.47m-8.47 0.794h8.47m-8.47 0.794h8.47m-8.47 0.794h8.47m-8.47 0.794h8.47m-8.47 0.794h8.47m-8.47 0.794h8.47m-8.47 0.794h8.47" stroke="#808080" stroke-width=".0331"/><rect x=".0179" y=".0179" width="8.43" height="8.43" stroke="#000" stroke-width=".0359"/></g></svg>
