<svg width="32" height="32" version="1.1" viewBox="0 0 8.4667 8.4667" xmlns="http://www.w3.org/2000/svg"><defs><marker id="a" overflow="visible" orient="auto"><path transform="scale(.6) rotate(180) translate(0)" d="m8.7186 4.0337-10.926-4.0177 10.926-4.0177c-1.7455 2.3721-1.7354 5.6175-6e-7 8.0354z" fill="#a50" fill-rule="evenodd" stroke="#a50" stroke-linejoin="round" stroke-width=".625"/></marker><marker id="b" overflow="visible" orient="auto"><path transform="scale(.6) rotate(180) translate(0)" d="m8.7186 4.0337-10.926-4.0177 10.926-4.0177c-1.7455 2.3721-1.7354 5.6175-6e-7 8.0354z" fill="#a50" fill-rule="evenodd" stroke="#a50" stroke-linejoin="round" stroke-width=".625"/></marker></defs><g><rect x=".1377" y=".1377" width="8.1913" height="8.1913" stroke="#a50" stroke-width=".27539"/><text x="3.4558368" y="2.5040662" fill="#000000" font-family="'Times New Roman'" font-size="1.0583px" stroke="#aa5500" stroke-width=".26458" style="line-height:1.25" xml:space="preserve"><tspan x="3.4558368" y="2.5040662" fill="#000000" font-size="1.0583px" stroke="#aa5500" stroke-width=".26458"/></text><path d="m7.2578 5.3763c-1.4515 4.047-5.8985 2.5695-6.2112-0.99522" marker-end="url(#b)" stroke="#a50" stroke-width=".265"/><text x="2.2029693" y="4.5369091" fill="#aa5500" font-family="'Times New Roman'" font-size="5.2917px" stroke="#aa5500" stroke-width=".26458" style="line-height:1.25" xml:space="preserve"><tspan x="2.2029693" y="4.5369091" fill="#aa5500" stroke="#aa5500" stroke-width=".26458">...</tspan></text><path d="m0.90671 3.0903c1.4515-4.047 5.8985-2.5695 6.2112 0.99522" marker-end="url(#a)" stroke="#a50" stroke-width=".26511"/></g></svg>
