<svg width="32" height="32" version="1.1" viewBox="0 0 8.4667 8.4667" xml:space="preserve" xmlns="http://www.w3.org/2000/svg"><rect x=".13229" y=".13229" width="8.2021" height="8.2021" fill="#b3b3b3" stroke="#000" stroke-width=".26458"/><path d="m1.0687 4.7789 1.0177 0.36977" fill="none" stroke="#000" stroke-width=".037649"/><text x="0.6003297" y="6.2964416" fill="#808080" font-family="'Andale Mono'" font-size="6.35px" stroke-width=".26458" style="line-height:1.25" xml:space="preserve"><tspan x="0.6003297" y="6.2964416" fill="#808080" stroke-width=".26458"/></text><path d="m2.1016 5.1128 0.21578 1.2922" fill="none" stroke="#000" stroke-width=".037649"/><path d="m2.5807 1.3044 1.0422-0.66773 2.0001 0.45838 0.96487 0.75964 0.79918 0.48329-0.5315 1.0648 0.76981 0.73187-0.7045 1.6629 0.26399 1.2192-1.0424 0.69452-1.2724 0.055203-2.8347-0.60483 0.26934-0.82449-1.3129-0.3067 0.034751-1.2715 0.17867-1.7783 0.22715-1.0493-0.23094-1.2171z" fill="none" stroke="#000" stroke-width=".037649"/><rect x=".91421" y=".4437" width=".54371" height=".58658" fill="#800080" opacity=".99"/><path d="m1.4344 1.8334 1.137-0.58773" fill="none" stroke="#000" stroke-width=".037649"/><rect x="1.1584" y="1.6397" width=".54371" height=".58658" fill="#800080" opacity=".99"/><rect x=".92614" y="2.7046" width=".54371" height=".58658" fill="#800080" opacity=".99"/><g fill="#000080"><rect x=".77124" y="4.5631" width=".54371" height=".58658" opacity=".99"/><rect x="1.8253" y="4.8772" width=".54371" height=".58658" opacity=".99"/><rect x="2.0322" y="6.0742" width=".54371" height=".58658" opacity=".99"/><rect x=".78013" y="5.7881" width=".54371" height=".58658" opacity=".99"/><rect x="1.7657" y="6.946" width=".54371" height=".58658" opacity=".99"/></g><path d="m4.9386 7.7452 0.74378-1.3209" fill="none" stroke="#000" stroke-width=".037649"/><g fill="#6f0"><rect x="4.6347" y="7.5225" width=".54371" height=".58658" opacity=".99"/><rect x="5.9017" y="7.3989" width=".54371" height=".58658" opacity=".99"/><rect x="6.9388" y="6.7068" width=".54371" height=".58658" opacity=".99"/></g><path d="m7.0044 5.7325-1.3366 0.7569z" fill="none" stroke="#000" stroke-width=".037649"/><rect x="6.6836" y="5.5237" width=".54371" height=".58658" fill="#6f0" opacity=".99"/><rect x="5.4135" y="6.2301" width=".54371" height=".58658" fill="#6f0" opacity=".99"/><rect x="7.3578" y="3.8553" width=".54371" height=".58658" fill="#fea" opacity=".99"/><path d="m6.5867 1.7848 0.26192 1.6038" fill="none" stroke="#000" stroke-width=".037649"/><g fill="#fea"><rect x="6.5927" y="3.0906" width=".54371" height=".58658" opacity=".99"/><rect x="7.1413" y="2.0739" width=".54371" height=".58658" opacity=".99"/><rect x="6.3279" y="1.5487" width=".54371" height=".58658" opacity=".99"/><rect x="5.314" y=".84101" width=".54371" height=".58658" opacity=".99"/></g><rect x="2.2966" y="1.0221" width=".54371" height=".58658" fill="#800080" opacity=".99"/><rect x="3.3223" y=".39453" width=".54371" height=".58658" fill="#800080" opacity=".99"/><g fill="none" stroke="#000" stroke-width=".37649px"><path d="m2.5763 1.2668"/><path d="m6.8855 3.4023"/><path d="m5.6877 6.4662"/></g><text x="2.4036109" y="5.2084303" font-family="'Andale Mono'" font-size="3.175px" stroke-width=".26458" style="line-height:1.25" xml:space="preserve"><tspan x="2.4036109" y="5.2084303" font-size="3.175px" stroke-width=".26458">TH</tspan></text></svg>
